<svg xmlns="http://www.w3.org/2000/svg" shape-rendering="geometricPrecision" text-rendering="geometricPrecision" image-rendering="optimizeQuality" fill-rule="evenodd" clip-rule="evenodd" viewBox="0 0 452 511.78"><path fill="#023144" fill-rule="nonzero" d="M324.41 511.78H127.59c-41.45 0-73.26-33.73-74.93-74.43L40.49 142.91H14.44C6.47 142.91 0 136.44 0 128.47V97.93c0-23.75 19.53-43.28 43.28-43.28h106.51v-6.89C149.79 21.49 171.3 0 197.56 0h56.88c26.29 0 47.77 21.48 47.77 47.76v6.89h106.51c23.75 0 43.28 19.53 43.28 43.28v30.54c0 7.97-6.47 14.44-14.44 14.44H411.5l-12.16 294.45c-1.68 40.69-33.48 74.42-74.93 74.42zM166.77 54.65h118.45v-6.89c0-16.91-13.87-30.77-30.78-30.77h-56.88c-16.93 0-30.79 13.84-30.79 30.77v6.89z"/><path fill="#EDD8DB" d="M127.59 497.34h196.82c33.3 0 59.17-27.28 60.55-60.55l12.14-293.88H54.9l12.14 293.88c1.37 33.27 27.25 60.55 60.55 60.55z"/><path fill="#fff" d="M55.74 163.38l11.3 273.41c.45 10.77 3.46 20.91 8.46 29.71h250.24c19.23 0 34.25-15.74 34.95-34.95l8.49-233.22c.7-19.21-15.72-34.95-34.94-34.95H55.74z"/><path fill="#E4989D" d="M43.28 69.09h365.44c15.86 0 28.84 12.98 28.84 28.84v30.54H14.44V97.93c0-15.86 12.98-28.84 28.84-28.84z"/><path fill="#023144" fill-rule="nonzero" d="M131.95 199.45c-.02-3.96 3.19-7.2 7.16-7.21 3.97-.02 7.2 3.19 7.22 7.15l1.36 226.97c.01 3.97-3.19 7.2-7.16 7.22-3.97.01-7.2-3.19-7.22-7.16l-1.36-226.97zm172.36 0c-.02-3.96 3.19-7.2 7.15-7.21 3.97-.02 7.21 3.19 7.22 7.15l1.37 226.97c.02 3.97-3.19 7.2-7.16 7.22-3.97.01-7.2-3.19-7.22-7.16l-1.36-226.97zm-84.34-.03c0-3.98 3.24-7.21 7.22-7.21 3.99 0 7.22 3.23 7.22 7.21v226.97c0 3.98-3.23 7.22-7.22 7.22-3.98 0-7.22-3.24-7.22-7.22V199.42z"/></svg>